<?xml version="1.0" encoding="utf-8"?>
<!-- Generator: Adobe Illustrator 15.1.0, SVG Export Plug-In . SVG Version: 6.00 Build 0)  -->
<!DOCTYPE svg PUBLIC "-//W3C//DTD SVG 1.1//EN" "http://www.w3.org/Graphics/SVG/1.1/DTD/svg11.dtd">
<svg version="1.1" id="レイヤー_1" xmlns="http://www.w3.org/2000/svg" xmlns:xlink="http://www.w3.org/1999/xlink" x="0px"
	 y="0px" width="117.379px" height="86.467px" viewBox="0 0 117.379 86.467" enable-background="new 0 0 117.379 86.467"
	 xml:space="preserve">
<g>
	<g>
		<path fill="#FFFFFF" stroke="#000000" stroke-width="2" stroke-miterlimit="10" d="M41.24,13.793
			C45.953,10.047,51.486,0.92,54.984,1c3.5,0.082,12.029,4.369,18.197,6.871c5.451,2.211,17.279,5.334,14.582,8.396
			c-2.188,2.484-5.527,6.5-7.473,9.455c-2.998,4.557-9.32-2.021-16.754-4.945S38.182,16.223,41.24,13.793z"/>
		
			<line fill="#FFFFFF" stroke="#000000" stroke-linecap="round" stroke-miterlimit="10" x1="58.178" y1="1.95" x2="49.053" y2="11.95"/>
		
			<line fill="#FFFFFF" stroke="#000000" stroke-linecap="round" stroke-miterlimit="10" x1="62.803" y1="3.575" x2="54.053" y2="13.075"/>
		
			<line fill="#FFFFFF" stroke="#000000" stroke-linecap="round" stroke-miterlimit="10" x1="66.678" y1="5.825" x2="59.428" y2="14.325"/>
		
			<line fill="#FFFFFF" stroke="#000000" stroke-linecap="round" stroke-miterlimit="10" x1="71.428" y1="7.075" x2="64.553" y2="15.325"/>
		
			<line fill="#FFFFFF" stroke="#000000" stroke-linecap="round" stroke-miterlimit="10" x1="76.053" y1="9.2" x2="68.428" y2="17.825"/>
		
			<line fill="#FFFFFF" stroke="#000000" stroke-linecap="round" stroke-miterlimit="10" x1="80.803" y1="10.825" x2="72.928" y2="19.7"/>
		
			<line fill="#FFFFFF" stroke="#000000" stroke-linecap="round" stroke-miterlimit="10" x1="84.803" y1="12.575" x2="76.512" y2="22.575"/>
	</g>
	<g>
		<path fill="#FFFFFF" stroke="#000000" stroke-width="2" stroke-miterlimit="10" d="M66.68,69.493
			c1.107,2.516,4.348,10.963,7.197,10.813s4.26-2.242,8.572-5.688c4.314-3.445,6.432-4.254,7.188-6.75
			c0.756-2.498-6.984-9.186-8.791-8.875C79.039,59.301,66.68,69.493,66.68,69.493z"/>
		
			<line fill="#FFFFFF" stroke="#000000" stroke-linecap="round" stroke-miterlimit="10" x1="71.678" y1="70.325" x2="77.053" y2="79.2"/>
		
			<line fill="#FFFFFF" stroke="#000000" stroke-linecap="round" stroke-miterlimit="10" x1="74.928" y1="68.2" x2="80.428" y2="75.825"/>
		
			<line fill="#FFFFFF" stroke="#000000" stroke-linecap="round" stroke-miterlimit="10" x1="78.053" y1="65.95" x2="84.303" y2="73.825"/>
		
			<line fill="#FFFFFF" stroke="#000000" stroke-linecap="round" stroke-miterlimit="10" x1="81.303" y1="63.2" x2="87.553" y2="70.325"/>
	</g>
	<g>
		<path fill="#FFFFFF" stroke="#000000" stroke-width="2" stroke-miterlimit="10" d="M27.393,68.241
			c-1.922,7.002,4.084,18.125,7.494,17.168c4.459-1.25,4.922-7.627,4.84-9.168c-0.084-1.535-3.742-5.527-3.742-5.527L27.393,68.241z
			"/>
		
			<line fill="#FFFFFF" stroke="#000000" stroke-linecap="round" stroke-miterlimit="10" x1="29.678" y1="72.2" x2="35.178" y2="84.575"/>
		
			<line fill="#FFFFFF" stroke="#000000" stroke-linecap="round" stroke-miterlimit="10" x1="33.178" y1="72.325" x2="38.178" y2="82.493"/>
	</g>
	<g>
		<path fill="#E6E6E6" stroke="#000000" stroke-width="2" stroke-miterlimit="10" d="M1.053,46.784c0.941-7.531,13.75-29.084,34-33
			c19.627-3.795,29.498,1.846,40.834,9.166c8.023,5.182,17.42,15.629,21.166,14.25c6.436-2.367,14.125-14.625,17.625-12.375
			c4.855,3.121-2.252,13.176-2,21.75c0.25,8.5,5.375,16.25,1.625,18.75c-4.129,2.754-12.75-9.125-17.25-11.125
			c-5.951-2.645-15,11.75-32,18.75c-10.676,4.396-35.541,4.709-49.166-5.5C6.064,60.092,0.387,52.118,1.053,46.784z"/>
		
			<line fill="#FFFFFF" stroke="#000000" stroke-linecap="round" stroke-miterlimit="10" x1="101.053" y1="39.7" x2="115.428" y2="30.325"/>
		
			<line fill="#FFFFFF" stroke="#000000" stroke-linecap="round" stroke-miterlimit="10" x1="103.053" y1="42.825" x2="113.678" y2="39.325"/>
		
			<line fill="#FFFFFF" stroke="#000000" stroke-linecap="round" stroke-miterlimit="10" x1="103.178" y1="49.534" x2="113.428" y2="52.2"/>
		
			<line fill="#FFFFFF" stroke="#000000" stroke-linecap="round" stroke-miterlimit="10" x1="101.846" y1="52.45" x2="114.553" y2="59.825"/>
		
			<line fill="#FFFFFF" stroke="#000000" stroke-linecap="round" stroke-miterlimit="10" x1="103.428" y1="46.2" x2="112.678" y2="45.95"/>
	</g>
	<g>
		<path fill="#FFFFFF" stroke="#000000" stroke-width="2" stroke-miterlimit="10" d="M24.283,54.973c0,0,10.465-2.115,10.02,1.059
			c-0.447,3.176-3.797,11.773-7.5,9.668c-3.701-2.104-4.924-5.018-4.924-5.018L24.283,54.973z"/>
		
			<line fill="#FFFFFF" stroke="#000000" stroke-linecap="round" stroke-miterlimit="10" x1="24.096" y1="57.637" x2="33.346" y2="58.387"/>
		
			<line fill="#FFFFFF" stroke="#000000" stroke-linecap="round" stroke-miterlimit="10" x1="23.053" y1="59.534" x2="31.178" y2="62.659"/>
	</g>
	<g>
		<path d="M35.348,52.159c-0.866,0-1.725-0.373-2.317-1.093c-1.054-1.279-0.871-3.17,0.408-4.223
			C37.075,43.848,48.117,27.658,52.578,17c0.641-1.529,2.401-2.249,3.926-1.609c1.528,0.64,2.249,2.397,1.609,3.925
			c-4.62,11.037-16.196,28.316-20.86,32.158C36.694,51.935,36.019,52.159,35.348,52.159z"/>
		<path d="M48.93,56.075c-0.774,0-1.55-0.298-2.137-0.894c-1.163-1.18-1.149-3.079,0.03-4.242
			c4.682-4.615,14.495-21.767,18.132-30.727c0.622-1.536,2.374-2.274,3.907-1.651c1.535,0.623,2.275,2.373,1.651,3.908
			c-3.915,9.647-14.262,27.6-19.478,32.742C50.451,55.787,49.69,56.075,48.93,56.075z"/>
		<path d="M61.294,61.512c-0.737,0-1.476-0.27-2.056-0.815c-1.206-1.136-1.264-3.034-0.128-4.241
			c3.938-4.184,6.375-8.643,9.748-14.815c2.143-3.92,4.571-8.364,7.912-13.682c0.881-1.402,2.734-1.826,4.136-0.944
			c1.403,0.881,1.826,2.733,0.944,4.136c-3.243,5.163-5.625,9.521-7.727,13.367c-3.452,6.317-6.18,11.307-10.645,16.05
			C62.89,61.195,62.093,61.512,61.294,61.512z"/>
		<path d="M76.201,62.784c-0.632,0-1.27-0.199-1.812-0.61c-1.32-1.001-1.578-2.883-0.576-4.203
			c6.146-8.098,6.749-8.999,12.516-21.095c0.713-1.495,2.504-2.13,3.999-1.417c1.496,0.713,2.13,2.503,1.417,3.999
			c-5.969,12.519-6.859,13.849-13.152,22.14C78.003,62.375,77.107,62.784,76.201,62.784z"/>
		<path d="M29.76,37.159c-0.657,0-1.319-0.215-1.872-0.657c-1.294-1.035-1.504-2.923-0.469-4.217
			c0.663-0.829,1.25-1.558,1.778-2.212c4.133-5.128,4.471-5.547,9.681-15.1c0.794-1.454,2.616-1.989,4.07-1.197
			c1.454,0.793,1.99,2.616,1.197,4.07c-5.469,10.025-5.924,10.59-10.276,15.992c-0.524,0.65-1.106,1.373-1.765,2.196
			C31.512,36.773,30.64,37.159,29.76,37.159z"/>
	</g>
	<g>
		<circle cx="19.303" cy="38.45" r="5.125"/>
		<circle fill="#FFFFFF" cx="18.346" cy="37.659" r="2.125"/>
	</g>
</g>
</svg>
