<?xml version="1.0" encoding="utf-8"?>
<!-- Generator: Adobe Illustrator 15.1.0, SVG Export Plug-In . SVG Version: 6.00 Build 0)  -->
<!DOCTYPE svg PUBLIC "-//W3C//DTD SVG 1.1//EN" "http://www.w3.org/Graphics/SVG/1.1/DTD/svg11.dtd">
<svg version="1.1" id="レイヤー_1" xmlns="http://www.w3.org/2000/svg" xmlns:xlink="http://www.w3.org/1999/xlink" x="0px"
	 y="0px" width="117.378px" height="86.466px" viewBox="0 0 117.378 86.466" enable-background="new 0 0 117.378 86.466"
	 xml:space="preserve">
<g>
	<g>
		<g>
			<path fill="#FFFFFF" stroke="#000000" stroke-width="2" stroke-miterlimit="10" d="M41.239,13.793
				C45.953,10.047,51.486,0.92,54.984,1.001c3.499,0.082,12.028,4.368,18.197,6.87c5.45,2.211,17.278,5.334,14.581,8.398
				c-2.188,2.484-5.527,6.498-7.472,9.453c-2.999,4.557-9.321-2.021-16.755-4.945S38.182,16.223,41.239,13.793z"/>
			
				<line fill="#FFFFFF" stroke="#000000" stroke-linecap="round" stroke-miterlimit="10" x1="58.178" y1="1.95" x2="49.053" y2="11.951"/>
			
				<line fill="#FFFFFF" stroke="#000000" stroke-linecap="round" stroke-miterlimit="10" x1="62.803" y1="3.575" x2="54.053" y2="13.076"/>
			
				<line fill="#FFFFFF" stroke="#000000" stroke-linecap="round" stroke-miterlimit="10" x1="66.678" y1="5.826" x2="59.428" y2="14.326"/>
			
				<line fill="#FFFFFF" stroke="#000000" stroke-linecap="round" stroke-miterlimit="10" x1="71.428" y1="7.076" x2="64.553" y2="15.326"/>
			
				<line fill="#FFFFFF" stroke="#000000" stroke-linecap="round" stroke-miterlimit="10" x1="76.053" y1="9.201" x2="68.428" y2="17.826"/>
			
				<line fill="#FFFFFF" stroke="#000000" stroke-linecap="round" stroke-miterlimit="10" x1="80.803" y1="10.826" x2="72.928" y2="19.701"/>
			
				<line fill="#FFFFFF" stroke="#000000" stroke-linecap="round" stroke-miterlimit="10" x1="84.803" y1="12.576" x2="76.511" y2="22.576"/>
		</g>
		<g>
			<path fill="#FFFFFF" stroke="#000000" stroke-width="2" stroke-miterlimit="10" d="M66.679,69.492
				c1.107,2.516,4.349,10.963,7.197,10.813c2.85-0.148,4.26-2.242,8.572-5.688c4.314-3.443,6.432-4.252,7.188-6.75
				c0.756-2.496-6.984-9.186-8.791-8.875S66.679,69.492,66.679,69.492z"/>
			
				<line fill="#FFFFFF" stroke="#000000" stroke-linecap="round" stroke-miterlimit="10" x1="71.678" y1="70.326" x2="77.053" y2="79.201"/>
			
				<line fill="#FFFFFF" stroke="#000000" stroke-linecap="round" stroke-miterlimit="10" x1="74.928" y1="68.201" x2="80.428" y2="75.826"/>
			
				<line fill="#FFFFFF" stroke="#000000" stroke-linecap="round" stroke-miterlimit="10" x1="78.053" y1="65.951" x2="84.303" y2="73.826"/>
			
				<line fill="#FFFFFF" stroke="#000000" stroke-linecap="round" stroke-miterlimit="10" x1="81.303" y1="63.201" x2="87.553" y2="70.326"/>
		</g>
		<g>
			<path fill="#FFFFFF" stroke="#000000" stroke-width="2" stroke-miterlimit="10" d="M27.392,68.24
				c-1.922,7.002,4.084,18.125,7.494,17.168c4.459-1.248,4.922-7.627,4.84-9.168c-0.083-1.533-3.741-5.527-3.741-5.527L27.392,68.24
				z"/>
			
				<line fill="#FFFFFF" stroke="#000000" stroke-linecap="round" stroke-miterlimit="10" x1="29.678" y1="72.201" x2="35.178" y2="84.576"/>
			
				<line fill="#FFFFFF" stroke="#000000" stroke-linecap="round" stroke-miterlimit="10" x1="33.178" y1="72.326" x2="38.178" y2="82.492"/>
		</g>
		<g>
			<path fill="#E6E6E6" stroke="#000000" stroke-width="2" stroke-miterlimit="10" d="M1.053,46.783c0.941-7.531,13.75-29.082,34-33
				c19.626-3.795,29.497,1.846,40.833,9.168c8.023,5.182,17.421,15.629,21.167,14.25c6.435-2.369,14.125-14.625,17.625-12.375
				c4.854,3.121-2.252,13.174-2,21.75c0.25,8.5,5.375,16.25,1.625,18.75c-4.129,2.752-12.75-9.125-17.25-11.125
				c-5.951-2.646-15,11.75-32,18.75c-10.677,4.396-35.542,4.707-49.167-5.5C6.064,60.092,0.386,52.117,1.053,46.783z"/>
			
				<line fill="#FFFFFF" stroke="#000000" stroke-linecap="round" stroke-miterlimit="10" x1="101.053" y1="39.701" x2="115.428" y2="30.326"/>
			
				<line fill="#FFFFFF" stroke="#000000" stroke-linecap="round" stroke-miterlimit="10" x1="103.053" y1="42.826" x2="113.678" y2="39.326"/>
			
				<line fill="#FFFFFF" stroke="#000000" stroke-linecap="round" stroke-miterlimit="10" x1="103.178" y1="49.533" x2="113.428" y2="52.201"/>
			
				<line fill="#FFFFFF" stroke="#000000" stroke-linecap="round" stroke-miterlimit="10" x1="101.845" y1="52.451" x2="114.553" y2="59.826"/>
			
				<line fill="#FFFFFF" stroke="#000000" stroke-linecap="round" stroke-miterlimit="10" x1="103.428" y1="46.201" x2="112.678" y2="45.951"/>
		</g>
		<g>
			<path fill="#FFFFFF" stroke="#000000" stroke-width="2" stroke-miterlimit="10" d="M24.282,54.973c0,0,10.466-2.115,10.02,1.061
				c-0.446,3.174-3.797,11.771-7.499,9.668s-4.924-5.02-4.924-5.02L24.282,54.973z"/>
			
				<line fill="#FFFFFF" stroke="#000000" stroke-linecap="round" stroke-miterlimit="10" x1="24.095" y1="57.639" x2="33.345" y2="58.389"/>
			
				<line fill="#FFFFFF" stroke="#000000" stroke-linecap="round" stroke-miterlimit="10" x1="23.053" y1="59.533" x2="31.178" y2="62.658"/>
		</g>
		<g>
			<circle cx="19.303" cy="38.451" r="5.125"/>
			<path fill="#FFFFFF" d="M20.47,37.658c0,1.174-0.951,2.127-2.125,2.127s-2.125-0.953-2.125-2.127
				c0-1.172,0.951-2.125,2.125-2.125S20.47,36.486,20.47,37.658z"/>
		</g>
	</g>
	<g>
		<circle cx="39.081" cy="22.451" r="2.833"/>
		<circle cx="50.081" cy="28.951" r="2.833"/>
		<circle cx="49.414" cy="17.617" r="2.833"/>
		<circle cx="59.581" cy="21.783" r="2.833"/>
		<circle cx="64.748" cy="31.617" r="2.833"/>
		<circle cx="74.581" cy="29.117" r="2.833"/>
		<circle cx="40.748" cy="33.283" r="2.833"/>
		<circle cx="56.249" cy="36.951" r="2.833"/>
		<circle cx="45.915" cy="43.283" r="2.833"/>
		<circle cx="35.665" cy="45.783" r="2.833"/>
		<circle cx="53.081" cy="50.783" r="2.833"/>
		<circle cx="63.249" cy="45.617" r="2.833"/>
		<circle cx="72.414" cy="39.283" r="2.833"/>
		<circle cx="82.914" cy="36.951" r="2.833"/>
		<circle cx="81.747" cy="46.451" r="2.833"/>
		<circle cx="72.081" cy="51.451" r="2.833"/>
		<circle cx="61.415" cy="56.951" r="2.833"/>
		<circle cx="43.415" cy="55.451" r="2.833"/>
		<circle cx="51.081" cy="62.951" r="2.833"/>
		<circle cx="40.915" cy="67.283" r="2.833"/>
		<circle cx="91.249" cy="44.117" r="2.833"/>
		<circle cx="81.082" cy="55.783" r="2.833"/>
		<circle cx="71.583" cy="62.283" r="2.833"/>
		<circle cx="60.414" cy="67.449" r="2.833"/>
	</g>
</g>
</svg>
