<?xml version="1.0" encoding="utf-8"?>
<!-- Generator: Adobe Illustrator 15.1.0, SVG Export Plug-In . SVG Version: 6.00 Build 0)  -->
<!DOCTYPE svg PUBLIC "-//W3C//DTD SVG 1.1//EN" "http://www.w3.org/Graphics/SVG/1.1/DTD/svg11.dtd">
<svg version="1.1" id="レイヤー_1" xmlns="http://www.w3.org/2000/svg" xmlns:xlink="http://www.w3.org/1999/xlink" x="0px"
	 y="0px" width="117.377px" height="86.465px" viewBox="0 0 117.377 86.465" enable-background="new 0 0 117.377 86.465"
	 xml:space="preserve">
<g>
	<g>
		<g>
			<path fill="#FFFFFF" stroke="#000000" stroke-width="2" stroke-miterlimit="10" d="M41.24,13.793
				C45.953,10.047,51.486,0.92,54.983,1c3.501,0.082,12.03,4.369,18.198,6.871c5.449,2.211,17.277,5.334,14.58,8.396
				c-2.188,2.484-5.527,6.5-7.473,9.455c-2.996,4.557-9.32-2.021-16.752-4.945C56.102,17.854,38.182,16.223,41.24,13.793z"/>
			
				<line fill="#FFFFFF" stroke="#000000" stroke-linecap="round" stroke-miterlimit="10" x1="58.178" y1="1.95" x2="49.053" y2="11.95"/>
			
				<line fill="#FFFFFF" stroke="#000000" stroke-linecap="round" stroke-miterlimit="10" x1="62.803" y1="3.575" x2="54.053" y2="13.075"/>
			
				<line fill="#FFFFFF" stroke="#000000" stroke-linecap="round" stroke-miterlimit="10" x1="66.678" y1="5.825" x2="59.428" y2="14.325"/>
			
				<line fill="#FFFFFF" stroke="#000000" stroke-linecap="round" stroke-miterlimit="10" x1="71.428" y1="7.075" x2="64.553" y2="15.325"/>
			
				<line fill="#FFFFFF" stroke="#000000" stroke-linecap="round" stroke-miterlimit="10" x1="76.053" y1="9.2" x2="68.428" y2="17.825"/>
			
				<line fill="#FFFFFF" stroke="#000000" stroke-linecap="round" stroke-miterlimit="10" x1="80.801" y1="10.825" x2="72.928" y2="19.7"/>
			
				<line fill="#FFFFFF" stroke="#000000" stroke-linecap="round" stroke-miterlimit="10" x1="84.801" y1="12.575" x2="76.512" y2="22.575"/>
		</g>
		<g>
			<path fill="#FFFFFF" stroke="#000000" stroke-width="2" stroke-miterlimit="10" d="M66.678,69.492
				c1.107,2.515,4.35,10.962,7.199,10.812s4.26-2.242,8.57-5.688c4.313-3.445,6.432-4.253,7.188-6.75
				c0.756-2.498-6.984-9.186-8.791-8.875C79.037,59.301,66.678,69.492,66.678,69.492z"/>
			
				<line fill="#FFFFFF" stroke="#000000" stroke-linecap="round" stroke-miterlimit="10" x1="71.678" y1="70.324" x2="77.053" y2="79.199"/>
			
				<line fill="#FFFFFF" stroke="#000000" stroke-linecap="round" stroke-miterlimit="10" x1="74.928" y1="68.199" x2="80.426" y2="75.824"/>
			
				<line fill="#FFFFFF" stroke="#000000" stroke-linecap="round" stroke-miterlimit="10" x1="78.053" y1="65.949" x2="84.301" y2="73.824"/>
			
				<line fill="#FFFFFF" stroke="#000000" stroke-linecap="round" stroke-miterlimit="10" x1="81.301" y1="63.199" x2="87.551" y2="70.324"/>
		</g>
		<g>
			<path fill="#FFFFFF" stroke="#000000" stroke-width="2" stroke-miterlimit="10" d="M27.393,68.24
				c-1.924,7.001,4.082,18.125,7.494,17.167c4.459-1.25,4.922-7.627,4.838-9.168c-0.082-1.535-3.74-5.527-3.74-5.527L27.393,68.24z"
				/>
			
				<line fill="#FFFFFF" stroke="#000000" stroke-linecap="round" stroke-miterlimit="10" x1="29.678" y1="72.199" x2="35.178" y2="84.574"/>
			
				<line fill="#FFFFFF" stroke="#000000" stroke-linecap="round" stroke-miterlimit="10" x1="33.178" y1="72.324" x2="38.178" y2="82.492"/>
		</g>
		<g>
			<path fill="#E6E6E6" stroke="#000000" stroke-width="2" stroke-miterlimit="10" d="M1.053,46.784c0.941-7.531,13.75-29.084,34-33
				c19.626-3.795,29.496,1.846,40.834,9.166c8.021,5.182,17.418,15.629,21.164,14.25c6.434-2.367,14.125-14.625,17.625-12.375
				c4.855,3.121-2.252,13.176-2,21.75c0.25,8.5,5.375,16.25,1.625,18.75c-4.129,2.754-12.75-9.125-17.25-11.125
				c-5.951-2.645-15,11.75-31.998,18.749c-10.678,4.396-35.541,4.709-49.166-5.5C6.064,60.092,0.387,52.118,1.053,46.784z"/>
			
				<line fill="#FFFFFF" stroke="#000000" stroke-linecap="round" stroke-miterlimit="10" x1="101.051" y1="39.7" x2="115.426" y2="30.325"/>
			
				<line fill="#FFFFFF" stroke="#000000" stroke-linecap="round" stroke-miterlimit="10" x1="103.051" y1="42.825" x2="113.676" y2="39.325"/>
			
				<line fill="#FFFFFF" stroke="#000000" stroke-linecap="round" stroke-miterlimit="10" x1="103.176" y1="49.534" x2="113.426" y2="52.2"/>
			
				<line fill="#FFFFFF" stroke="#000000" stroke-linecap="round" stroke-miterlimit="10" x1="101.844" y1="52.45" x2="114.551" y2="59.824"/>
			
				<line fill="#FFFFFF" stroke="#000000" stroke-linecap="round" stroke-miterlimit="10" x1="103.426" y1="46.2" x2="112.676" y2="45.95"/>
		</g>
		<g>
			<path fill="#FFFFFF" stroke="#000000" stroke-width="2" stroke-miterlimit="10" d="M24.283,54.973c0,0,10.465-2.115,10.02,1.059
				c-0.447,3.175-3.797,11.773-7.5,9.667c-3.703-2.104-4.924-5.018-4.924-5.018L24.283,54.973z"/>
			
				<line fill="#FFFFFF" stroke="#000000" stroke-linecap="round" stroke-miterlimit="10" x1="24.094" y1="57.637" x2="33.344" y2="58.387"/>
			
				<line fill="#FFFFFF" stroke="#000000" stroke-linecap="round" stroke-miterlimit="10" x1="23.053" y1="59.533" x2="31.178" y2="62.658"/>
		</g>
		<g>
			<circle cx="19.303" cy="38.45" r="5.125"/>
			<circle fill="#FFFFFF" cx="18.345" cy="37.659" r="2.126"/>
		</g>
	</g>
	<g>
		<path d="M62.229,21.485c2.891-0.328,4.625-2.709,7.939-2.557c-2.51-1.463-4.898-2.73-6.713-3.457
			c-0.646-0.057-1.223-0.246-1.67-0.611c-1.855-0.645-3.795-1.219-5.85-1.674C55.694,17.985,57.035,22.077,62.229,21.485z"/>
		<path d="M80.625,32.985c-5.58,0.59-8.371-9.578-14.18-8.816c-1.471,0.193-2.537,1.402-2.684,2.492
			c-0.348,2.6,2.023,4.258,4.408,5.748c2.574,1.609,4.953,3.867,7.666,4.791c2.68,0.914,5.762,0.607,7.09,2.492
			c3.172,4.508-2.328,10.727-0.193,15.332c0.693,1.492,2.275,2.414,3.75,3.304c1.883-1.275,3.598-2.439,4.752-3.294
			c0.186-0.139,0.371-0.262,0.557-0.379c-0.512-0.295-0.998-0.553-1.393-0.781c-1.168-0.672-3.611-1.553-3.449-4.6
			c0.09-1.662,1.225-2.432,2.492-2.682c0.104-0.021,1.197-0.293,2.107,0c1.375,0.439,4.164,4.951,5.438,4.508
			c1.273-0.441,1.584-4.705,1.137-7.031c-0.447-2.328-11.766-1.537-11.365-9.168c0.061-1.141,0.504-2.494,1.027-3.914
			c-1.369-1.082-2.738-2.172-4.031-3.158C84.52,30.821,82.416,32.795,80.625,32.985z"/>
		<path d="M45.717,12.184c-0.311,1.1-0.682,2.014-1.121,2.592c-1.154,1.525-3.729,2.299-5.174,3.26
			c-2.779,1.848-4.625,5.963-7.857,4.6c-1.336-0.563-2.047-3.439-1.15-5.367c0.986-2.121,4.422-2.602,6.664-3.781
			c-4.998,1.057-10.027,2.494-11.801,3.365c0.109,0.824-0.74,2.465-0.6,3.307c0.402,2.398,2.074,3.322,2.213,5.256
			c0.197,0.855-0.615,2.814-1.295,4.076c-2.334,4.334,1.348,7.721,3.299,8.527s7,3.473,5.354,6.85
			c-0.318,0.65-1.281,1.09-1.535,1.148c-2.088,0.482-3.07-0.635-4.043-1.766c-1.658-0.26-2.846,5.564-1.543,6.445
			c1.301,0.879,3.939,0.094,5.203,0.496c2.033,0.645,7.611,6.969,9.008,1.533c0.797-3.098-3.119-4.945-3.449-8.625
			c-0.529-5.908,3.316-5.926,7.092-8.816c3.365-2.576,3.465-5.439,6.324-6.133c3.47-0.842,4.871,1.697,4.791,4.025
			c-0.107,3.115-3.594,4.018-5.559,4.791c-2.441,0.961-5.184,2.059-5.941,4.217c-1.6,4.563,2.859,8.631,1.342,13.605
			c-0.836,2.744-4.834,5.644-8.24,4.984c-3.422-0.662-3.238,0.471-3.066,4.982c0.096,2.516-2.32,3.824-3.066,6.9
			c-0.092,0.379-0.162,0.748-0.213,1.113c0.412,0.066,0.758,0.113,1.01,0.139c0.789,0.078,2.744,0.307,5.217,0.553
			c0.023-2.264,0.549-4.515,1.844-6.597c2.518-4.043,10.604-4.814,12.457-9.197c1.637-3.873-1.385-7.076-1.15-11.308
			c0.223-3.975,5.13-7.449,8.434-7.857c2.6-0.32,5.293,0.65,5.174,3.449c-0.158,3.73-4.543,2.055-7.09,4.6
			c-2.38,2.381-1.532,8.715,1.533,9.199c7.088,1.123,4.494-10.584,9.965-11.115c2.604-0.252,4.658,1.879,4.025,5.174
			c-0.387,2.016-2.346,3.359-3.834,5.367c-1.338,1.809-3.178,3.871-4.791,4.408c-2.814,0.938-6.844,0.41-9.583,2.109
			c-1.401,0.869-2.827,2.912-4.599,4.406c-1.82,1.535-3.891,2.693-4.982,4.025c-0.664,0.806-1.316,2.253-1.711,3.824
			c2.514,0.176,5.086,0.291,7.299,0.262c0.15-0.586,0.32-1.133,0.543-1.596c1.598-3.318,4.538-4.484,7.859-5.939
			c1.961-0.861,3.621-1.887,6.707-2.109c3.266-0.234,5.662,0.891,7.973,1.854c1.227-0.691,2.215-1.336,2.836-1.885
			c1.383-1.225,3.648-2.855,6.055-4.518c-0.064-0.018-0.127-0.037-0.191-0.051c-4.053-0.895-5.027,3.156-9.006,2.109
			c-1.041-0.275-1.678-1.322-1.725-2.301c-0.154-3.226,4.164-3.044,5.75-4.984c1.672-2.043,1.404-9.563-0.383-11.881
			c-1.434-1.857-4.377-2.207-7.092-3.641c-1.186-0.627-2.578-1.898-4.025-2.877c-1.617-1.092-3.17-2.002-4.023-3.066
			c-1.563-1.941-1.465-6.336-2.875-8.049c-1.309-1.588-3.399-1.541-5.176-2.49c-1.057-0.566-2.471-1.875-3.066-3.066
			c-1.43-2.873-0.334-5.344,0.371-8.326c-1.436-0.15-2.928-0.234-4.488-0.234C46.332,12.159,46.029,12.168,45.717,12.184z
			 M48.047,23.209c0.527,3.939-4.311,5.295-7.857,7.857c-2.262,1.633-3.592,4.43-7.283,4.217c-3.699-0.213-5.174-4.904-1.533-6.898
			c1.713-0.939,4.871-0.734,6.898-1.916c2.947-1.719,3.262-4.98,5.941-5.559C45.902,20.545,47.795,21.329,48.047,23.209z"/>
	</g>
</g>
</svg>
