<?xml version="1.0" encoding="utf-8"?>
<!-- Generator: Adobe Illustrator 15.1.0, SVG Export Plug-In . SVG Version: 6.00 Build 0)  -->
<!DOCTYPE svg PUBLIC "-//W3C//DTD SVG 1.1//EN" "http://www.w3.org/Graphics/SVG/1.1/DTD/svg11.dtd">
<svg version="1.1" id="レイヤー_1" xmlns="http://www.w3.org/2000/svg" xmlns:xlink="http://www.w3.org/1999/xlink" x="0px"
	 y="0px" width="117.379px" height="86.466px" viewBox="0 0 117.379 86.466" enable-background="new 0 0 117.379 86.466"
	 xml:space="preserve">
<g>
	<g>
		<g>
			<path fill="#FFFFFF" stroke="#000000" stroke-width="2" stroke-miterlimit="10" d="M41.239,13.792
				C45.953,10.047,51.486,0.919,54.984,1c3.5,0.082,12.028,4.368,18.197,6.871c5.45,2.21,17.278,5.334,14.582,8.397
				c-2.188,2.484-5.527,6.499-7.472,9.454c-2.999,4.557-9.322-2.021-16.755-4.946C56.102,17.853,38.182,16.222,41.239,13.792z"/>
			
				<line fill="#FFFFFF" stroke="#000000" stroke-linecap="round" stroke-miterlimit="10" x1="58.178" y1="1.95" x2="49.053" y2="11.95"/>
			
				<line fill="#FFFFFF" stroke="#000000" stroke-linecap="round" stroke-miterlimit="10" x1="62.803" y1="3.575" x2="54.053" y2="13.075"/>
			
				<line fill="#FFFFFF" stroke="#000000" stroke-linecap="round" stroke-miterlimit="10" x1="66.678" y1="5.825" x2="59.428" y2="14.325"/>
			
				<line fill="#FFFFFF" stroke="#000000" stroke-linecap="round" stroke-miterlimit="10" x1="71.428" y1="7.075" x2="64.553" y2="15.325"/>
			
				<line fill="#FFFFFF" stroke="#000000" stroke-linecap="round" stroke-miterlimit="10" x1="76.053" y1="9.2" x2="68.428" y2="17.825"/>
			
				<line fill="#FFFFFF" stroke="#000000" stroke-linecap="round" stroke-miterlimit="10" x1="80.803" y1="10.825" x2="72.928" y2="19.7"/>
			
				<line fill="#FFFFFF" stroke="#000000" stroke-linecap="round" stroke-miterlimit="10" x1="84.803" y1="12.575" x2="76.511" y2="22.575"/>
		</g>
		<g>
			<path fill="#FFFFFF" stroke="#000000" stroke-width="2" stroke-miterlimit="10" d="M66.678,69.491
				c1.107,2.516,4.349,10.964,7.198,10.813c2.849-0.15,4.259-2.243,8.572-5.688c4.313-3.444,6.432-4.253,7.188-6.75
				c0.755-2.497-6.984-9.185-8.792-8.875C79.038,59.301,66.678,69.491,66.678,69.491z"/>
			
				<line fill="#FFFFFF" stroke="#000000" stroke-linecap="round" stroke-miterlimit="10" x1="71.678" y1="70.325" x2="77.053" y2="79.2"/>
			
				<line fill="#FFFFFF" stroke="#000000" stroke-linecap="round" stroke-miterlimit="10" x1="74.928" y1="68.2" x2="80.428" y2="75.825"/>
			
				<line fill="#FFFFFF" stroke="#000000" stroke-linecap="round" stroke-miterlimit="10" x1="78.053" y1="65.95" x2="84.303" y2="73.825"/>
			
				<line fill="#FFFFFF" stroke="#000000" stroke-linecap="round" stroke-miterlimit="10" x1="81.303" y1="63.2" x2="87.553" y2="70.325"/>
		</g>
		<g>
			<path fill="#FFFFFF" stroke="#000000" stroke-width="2" stroke-miterlimit="10" d="M27.392,68.239
				c-1.922,7.002,4.083,18.125,7.495,17.169c4.458-1.25,4.922-7.627,4.839-9.169c-0.083-1.534-3.741-5.527-3.741-5.527
				L27.392,68.239z"/>
			
				<line fill="#FFFFFF" stroke="#000000" stroke-linecap="round" stroke-miterlimit="10" x1="29.678" y1="72.2" x2="35.178" y2="84.575"/>
			
				<line fill="#FFFFFF" stroke="#000000" stroke-linecap="round" stroke-miterlimit="10" x1="33.178" y1="72.325" x2="38.178" y2="82.491"/>
		</g>
		<g>
			<path fill="#E6E6E6" stroke="#000000" stroke-width="2" stroke-miterlimit="10" d="M1.053,46.783c0.941-7.531,13.75-29.083,34-33
				c19.626-3.796,29.497,1.845,40.833,9.167c8.023,5.182,17.42,15.629,21.167,14.25c6.434-2.369,14.125-14.625,17.625-12.375
				c4.855,3.121-2.252,13.175-2,21.75c0.25,8.5,5.375,16.25,1.625,18.75c-4.129,2.752-12.75-9.125-17.25-11.125
				c-5.951-2.645-15,11.75-32,18.75c-10.677,4.396-35.542,4.708-49.167-5.5C6.064,60.091,0.386,52.117,1.053,46.783z"/>
			
				<line fill="#FFFFFF" stroke="#000000" stroke-linecap="round" stroke-miterlimit="10" x1="101.053" y1="39.7" x2="115.428" y2="30.325"/>
			
				<line fill="#FFFFFF" stroke="#000000" stroke-linecap="round" stroke-miterlimit="10" x1="103.053" y1="42.825" x2="113.678" y2="39.325"/>
			
				<line fill="#FFFFFF" stroke="#000000" stroke-linecap="round" stroke-miterlimit="10" x1="103.178" y1="49.533" x2="113.428" y2="52.2"/>
			
				<line fill="#FFFFFF" stroke="#000000" stroke-linecap="round" stroke-miterlimit="10" x1="101.845" y1="52.45" x2="114.553" y2="59.825"/>
			
				<line fill="#FFFFFF" stroke="#000000" stroke-linecap="round" stroke-miterlimit="10" x1="103.428" y1="46.2" x2="112.678" y2="45.95"/>
		</g>
		<g>
			<path fill="#FFFFFF" stroke="#000000" stroke-width="2" stroke-miterlimit="10" d="M24.283,54.973c0,0,10.465-2.116,10.019,1.059
				s-3.796,11.773-7.499,9.668c-3.703-2.104-4.924-5.019-4.924-5.019L24.283,54.973z"/>
			
				<line fill="#FFFFFF" stroke="#000000" stroke-linecap="round" stroke-miterlimit="10" x1="24.094" y1="57.637" x2="33.344" y2="58.387"/>
			
				<line fill="#FFFFFF" stroke="#000000" stroke-linecap="round" stroke-miterlimit="10" x1="23.053" y1="59.533" x2="31.178" y2="62.658"/>
		</g>
		<g>
			<circle cx="19.303" cy="38.45" r="5.125"/>
			<circle fill="#FFFFFF" cx="18.344" cy="37.658" r="2.125"/>
		</g>
	</g>
	<g>
		<path d="M42.009,73.901c-0.428,0-0.862-0.092-1.274-0.286c-1.5-0.705-2.144-2.492-1.438-3.991
			c2.587-5.502,4.465-16.318,4.465-25.717c0-10.694-0.711-16.893-2.927-25.51c-0.413-1.604,0.553-3.24,2.158-3.652
			c1.604-0.413,3.24,0.554,3.652,2.158c2.359,9.173,3.117,15.735,3.117,27.004c0,8.458-1.576,20.912-5.035,28.27
			C44.215,73.264,43.136,73.901,42.009,73.901z"/>
		<path d="M53.009,73.158c-0.428,0-0.862-0.092-1.274-0.286c-1.5-0.705-2.144-2.492-1.438-3.991
			c2.712-5.769,4.465-15.277,4.465-24.224c0-11.148-0.237-17.322-2.405-25.753c-0.413-1.604,0.553-3.24,2.158-3.652
			c1.605-0.413,3.24,0.554,3.652,2.158c2.42,9.409,2.595,16.571,2.595,27.247c0,9.911-1.929,20.171-5.035,26.776
			C55.215,72.521,54.136,73.158,53.009,73.158z"/>
		<path d="M65,69.891c-0.439,0-0.885-0.097-1.306-0.301c-1.491-0.723-2.114-2.517-1.392-4.008
			c2.884-5.952,3.126-13.449,3.126-20.008v-0.137c0-9.06,0-13.607-2.072-22.072c-0.394-1.609,0.591-3.233,2.201-3.627
			c1.61-0.393,3.234,0.592,3.627,2.201c2.244,9.168,2.244,14.258,2.244,23.499v0.137c0,7.226-0.288,15.529-3.727,22.624
			C67.184,69.268,66.113,69.891,65,69.891z"/>
		<path d="M76.01,65.159c-0.374,0-0.754-0.07-1.122-0.219c-1.537-0.62-2.279-2.368-1.66-3.905c2.877-7.13,3.146-17.647,0.82-32.152
			c-0.262-1.636,0.852-3.175,2.487-3.438c1.634-0.258,3.175,0.851,3.438,2.487c2.503,15.614,2.117,27.177-1.18,35.348
			C78.322,64.449,77.197,65.159,76.01,65.159z"/>
		<path d="M87.511,57.492c-0.353,0-0.712-0.063-1.063-0.195c-1.549-0.587-2.33-2.319-1.743-3.869
			c1.677-4.426,0.932-10.804,0.439-15.023l-0.115-0.993c-0.187-1.646,0.997-3.132,2.644-3.318c1.643-0.192,3.132,0.997,3.318,2.644
			l0.112,0.972c0.561,4.798,1.407,12.05-0.788,17.845C89.862,56.753,88.722,57.492,87.511,57.492z"/>
	</g>
</g>
</svg>
