<?xml version="1.0" encoding="utf-8"?>
<!-- Generator: Adobe Illustrator 15.1.0, SVG Export Plug-In . SVG Version: 6.00 Build 0)  -->
<!DOCTYPE svg PUBLIC "-//W3C//DTD SVG 1.1//EN" "http://www.w3.org/Graphics/SVG/1.1/DTD/svg11.dtd">
<svg version="1.1" id="レイヤー_1" xmlns="http://www.w3.org/2000/svg" xmlns:xlink="http://www.w3.org/1999/xlink" x="0px"
	 y="0px" width="117.378px" height="86.466px" viewBox="0 0 117.378 86.466" enable-background="new 0 0 117.378 86.466"
	 xml:space="preserve">
<g>
	<g>
		<g>
			<path fill="#FFFFFF" stroke="#000000" stroke-width="2" stroke-miterlimit="10" d="M41.239,13.792
				C45.952,10.047,51.485,0.919,54.983,1c3.5,0.082,12.029,4.368,18.197,6.871c5.451,2.21,17.279,5.334,14.582,8.397
				c-2.188,2.484-5.527,6.499-7.473,9.454c-2.998,4.557-9.32-2.021-16.754-4.946C56.103,17.853,38.181,16.222,41.239,13.792z"/>
			
				<line fill="#FFFFFF" stroke="#000000" stroke-linecap="round" stroke-miterlimit="10" x1="58.177" y1="1.95" x2="49.052" y2="11.95"/>
			
				<line fill="#FFFFFF" stroke="#000000" stroke-linecap="round" stroke-miterlimit="10" x1="62.802" y1="3.575" x2="54.052" y2="13.075"/>
			
				<line fill="#FFFFFF" stroke="#000000" stroke-linecap="round" stroke-miterlimit="10" x1="66.677" y1="5.825" x2="59.427" y2="14.325"/>
			
				<line fill="#FFFFFF" stroke="#000000" stroke-linecap="round" stroke-miterlimit="10" x1="71.427" y1="7.075" x2="64.552" y2="15.325"/>
			
				<line fill="#FFFFFF" stroke="#000000" stroke-linecap="round" stroke-miterlimit="10" x1="76.052" y1="9.2" x2="68.427" y2="17.825"/>
			
				<line fill="#FFFFFF" stroke="#000000" stroke-linecap="round" stroke-miterlimit="10" x1="80.802" y1="10.825" x2="72.927" y2="19.7"/>
			
				<line fill="#FFFFFF" stroke="#000000" stroke-linecap="round" stroke-miterlimit="10" x1="84.802" y1="12.575" x2="76.511" y2="22.575"/>
		</g>
		<g>
			<path fill="#FFFFFF" stroke="#000000" stroke-width="2" stroke-miterlimit="10" d="M66.679,69.491
				c1.107,2.516,4.348,10.964,7.197,10.813c2.85-0.15,4.26-2.243,8.572-5.688c4.313-3.444,6.432-4.253,7.188-6.75
				s-6.984-9.185-8.791-8.875C79.038,59.301,66.679,69.491,66.679,69.491z"/>
			
				<line fill="#FFFFFF" stroke="#000000" stroke-linecap="round" stroke-miterlimit="10" x1="71.677" y1="70.325" x2="77.052" y2="79.2"/>
			
				<line fill="#FFFFFF" stroke="#000000" stroke-linecap="round" stroke-miterlimit="10" x1="74.927" y1="68.2" x2="80.427" y2="75.825"/>
			
				<line fill="#FFFFFF" stroke="#000000" stroke-linecap="round" stroke-miterlimit="10" x1="78.052" y1="65.95" x2="84.302" y2="73.825"/>
			
				<line fill="#FFFFFF" stroke="#000000" stroke-linecap="round" stroke-miterlimit="10" x1="81.302" y1="63.2" x2="87.552" y2="70.325"/>
		</g>
		<g>
			<path fill="#FFFFFF" stroke="#000000" stroke-width="2" stroke-miterlimit="10" d="M27.392,68.239
				c-1.922,7.002,4.084,18.125,7.494,17.169c4.459-1.25,4.922-7.627,4.84-9.169c-0.084-1.534-3.742-5.527-3.742-5.527L27.392,68.239
				z"/>
			
				<line fill="#FFFFFF" stroke="#000000" stroke-linecap="round" stroke-miterlimit="10" x1="29.677" y1="72.2" x2="35.177" y2="84.575"/>
			
				<line fill="#FFFFFF" stroke="#000000" stroke-linecap="round" stroke-miterlimit="10" x1="33.177" y1="72.325" x2="38.177" y2="82.491"/>
		</g>
		<g>
			<path fill="#E6E6E6" stroke="#000000" stroke-width="2" stroke-miterlimit="10" d="M1.054,46.783
				c0.941-7.531,13.75-29.083,33.998-33c19.627-3.796,29.498,1.845,40.834,9.167c8.023,5.182,17.42,15.629,21.166,14.25
				c6.434-2.369,14.125-14.625,17.625-12.375c4.855,3.121-2.252,13.175-2,21.75c0.25,8.5,5.375,16.25,1.625,18.75
				c-4.129,2.752-12.75-9.125-17.25-11.125c-5.951-2.645-15,11.75-32,18.75c-10.676,4.396-35.541,4.708-49.166-5.5
				C6.065,60.091,0.386,52.117,1.054,46.783z"/>
			
				<line fill="#FFFFFF" stroke="#000000" stroke-linecap="round" stroke-miterlimit="10" x1="101.052" y1="39.7" x2="115.427" y2="30.325"/>
			
				<line fill="#FFFFFF" stroke="#000000" stroke-linecap="round" stroke-miterlimit="10" x1="103.052" y1="42.825" x2="113.677" y2="39.325"/>
			
				<line fill="#FFFFFF" stroke="#000000" stroke-linecap="round" stroke-miterlimit="10" x1="103.177" y1="49.533" x2="113.427" y2="52.2"/>
			
				<line fill="#FFFFFF" stroke="#000000" stroke-linecap="round" stroke-miterlimit="10" x1="101.845" y1="52.45" x2="114.552" y2="59.825"/>
			
				<line fill="#FFFFFF" stroke="#000000" stroke-linecap="round" stroke-miterlimit="10" x1="103.427" y1="46.2" x2="112.677" y2="45.95"/>
		</g>
		<g>
			<path fill="#FFFFFF" stroke="#000000" stroke-width="2" stroke-miterlimit="10" d="M24.282,54.973c0,0,10.465-2.116,10.02,1.059
				c-0.447,3.175-3.797,11.773-7.498,9.668c-3.703-2.104-4.924-5.019-4.924-5.019L24.282,54.973z"/>
			
				<line fill="#FFFFFF" stroke="#000000" stroke-linecap="round" stroke-miterlimit="10" x1="24.095" y1="57.637" x2="33.345" y2="58.387"/>
			
				<line fill="#FFFFFF" stroke="#000000" stroke-linecap="round" stroke-miterlimit="10" x1="23.054" y1="59.533" x2="31.177" y2="62.658"/>
		</g>
		<g>
			<circle cx="19.304" cy="38.45" r="5.125"/>
			<circle fill="#FFFFFF" cx="18.345" cy="37.658" r="2.125"/>
		</g>
	</g>
	<path d="M41.261,12.991c0,0,7.25,11.75,5.75,32s-8,29.75-8,29.75s12,2.75,21.5-0.5s31.5-18,32.25-20s3.25,0,3.25,0s1.75-6,1.75-8.5
		s-0.875-8.291-0.875-8.291s-5.125-0.459-7.625-2.709s-13.5-11.75-17.75-14.25S57.511,12.741,41.261,12.991z"/>
</g>
</svg>
