<?xml version="1.0" encoding="utf-8"?>
<!-- Generator: Adobe Illustrator 15.1.0, SVG Export Plug-In . SVG Version: 6.00 Build 0)  -->
<!DOCTYPE svg PUBLIC "-//W3C//DTD SVG 1.1//EN" "http://www.w3.org/Graphics/SVG/1.1/DTD/svg11.dtd">
<svg version="1.1" id="レイヤー_1" xmlns="http://www.w3.org/2000/svg" xmlns:xlink="http://www.w3.org/1999/xlink" x="0px"
	 y="0px" width="117.377px" height="86.467px" viewBox="0 0 117.377 86.467" enable-background="new 0 0 117.377 86.467"
	 xml:space="preserve">
<g>
	<g>
		<g>
			<path fill="#FFFFFF" stroke="#000000" stroke-width="2" stroke-miterlimit="10" d="M41.239,13.794
				c4.715-3.746,10.248-12.873,13.746-12.793C58.483,1.083,67.012,5.37,73.18,7.872c5.451,2.211,17.279,5.334,14.582,8.396
				c-2.188,2.484-5.527,6.5-7.473,9.455c-2.998,4.557-9.32-2.021-16.754-4.945S38.183,16.224,41.239,13.794z"/>
			
				<line fill="#FFFFFF" stroke="#000000" stroke-linecap="round" stroke-miterlimit="10" x1="58.178" y1="1.95" x2="49.054" y2="11.95"/>
			
				<line fill="#FFFFFF" stroke="#000000" stroke-linecap="round" stroke-miterlimit="10" x1="62.801" y1="3.575" x2="54.054" y2="13.075"/>
			
				<line fill="#FFFFFF" stroke="#000000" stroke-linecap="round" stroke-miterlimit="10" x1="66.676" y1="5.825" x2="59.428" y2="14.325"/>
			
				<line fill="#FFFFFF" stroke="#000000" stroke-linecap="round" stroke-miterlimit="10" x1="71.426" y1="7.075" x2="64.551" y2="15.325"/>
			
				<line fill="#FFFFFF" stroke="#000000" stroke-linecap="round" stroke-miterlimit="10" x1="76.051" y1="9.2" x2="68.426" y2="17.825"/>
			
				<line fill="#FFFFFF" stroke="#000000" stroke-linecap="round" stroke-miterlimit="10" x1="80.801" y1="10.825" x2="72.926" y2="19.7"/>
			
				<line fill="#FFFFFF" stroke="#000000" stroke-linecap="round" stroke-miterlimit="10" x1="84.801" y1="12.575" x2="76.51" y2="22.575"/>
		</g>
		<g>
			<path fill="#FFFFFF" stroke="#000000" stroke-width="2" stroke-miterlimit="10" d="M66.678,69.493
				c1.107,2.516,4.348,10.963,7.197,10.813s4.26-2.242,8.572-5.688c4.314-3.445,6.432-4.254,7.188-6.75
				c0.756-2.498-6.984-9.186-8.791-8.875C79.038,59.302,66.678,69.493,66.678,69.493z"/>
			
				<line fill="#FFFFFF" stroke="#000000" stroke-linecap="round" stroke-miterlimit="10" x1="71.676" y1="70.325" x2="77.051" y2="79.2"/>
			
				<line fill="#FFFFFF" stroke="#000000" stroke-linecap="round" stroke-miterlimit="10" x1="74.926" y1="68.2" x2="80.426" y2="75.825"/>
			
				<line fill="#FFFFFF" stroke="#000000" stroke-linecap="round" stroke-miterlimit="10" x1="78.051" y1="65.95" x2="84.301" y2="73.825"/>
			
				<line fill="#FFFFFF" stroke="#000000" stroke-linecap="round" stroke-miterlimit="10" x1="81.301" y1="63.2" x2="87.551" y2="70.325"/>
		</g>
		<g>
			<path fill="#FFFFFF" stroke="#000000" stroke-width="2" stroke-miterlimit="10" d="M27.392,68.241
				c-1.922,7.002,4.084,18.125,7.494,17.168c4.459-1.25,4.922-7.627,4.84-9.168c-0.082-1.535-3.74-5.527-3.74-5.527L27.392,68.241z"
				/>
			
				<line fill="#FFFFFF" stroke="#000000" stroke-linecap="round" stroke-miterlimit="10" x1="29.679" y1="72.2" x2="35.179" y2="84.575"/>
			
				<line fill="#FFFFFF" stroke="#000000" stroke-linecap="round" stroke-miterlimit="10" x1="33.179" y1="72.325" x2="38.179" y2="82.493"/>
		</g>
		<g>
			<path fill="#E6E6E6" stroke="#000000" stroke-width="2" stroke-miterlimit="10" d="M1.053,46.784
				c0.941-7.531,13.75-29.084,34.001-33c19.625-3.795,29.496,1.846,40.832,9.166c8.023,5.182,17.42,15.629,21.166,14.25
				c6.436-2.367,14.125-14.625,17.625-12.375c4.855,3.121-2.252,13.176-2,21.75c0.25,8.5,5.375,16.25,1.625,18.75
				c-4.129,2.754-12.75-9.125-17.25-11.125c-5.951-2.645-15,11.75-32,18.75c-10.676,4.396-35.541,4.709-49.165-5.5
				C6.064,60.093,0.387,52.118,1.053,46.784z"/>
			
				<line fill="#FFFFFF" stroke="#000000" stroke-linecap="round" stroke-miterlimit="10" x1="101.051" y1="39.7" x2="115.426" y2="30.325"/>
			
				<line fill="#FFFFFF" stroke="#000000" stroke-linecap="round" stroke-miterlimit="10" x1="103.051" y1="42.825" x2="113.676" y2="39.325"/>
			
				<line fill="#FFFFFF" stroke="#000000" stroke-linecap="round" stroke-miterlimit="10" x1="103.176" y1="49.534" x2="113.426" y2="52.2"/>
			
				<line fill="#FFFFFF" stroke="#000000" stroke-linecap="round" stroke-miterlimit="10" x1="101.844" y1="52.45" x2="114.551" y2="59.825"/>
			
				<line fill="#FFFFFF" stroke="#000000" stroke-linecap="round" stroke-miterlimit="10" x1="103.426" y1="46.2" x2="112.676" y2="45.95"/>
		</g>
		<g>
			<path fill="#FFFFFF" stroke="#000000" stroke-width="2" stroke-miterlimit="10" d="M24.282,54.974c0,0,10.467-2.115,10.02,1.059
				c-0.445,3.176-3.797,11.773-7.498,9.668c-3.703-2.104-4.924-5.018-4.924-5.018L24.282,54.974z"/>
			
				<line fill="#FFFFFF" stroke="#000000" stroke-linecap="round" stroke-miterlimit="10" x1="24.095" y1="57.638" x2="33.345" y2="58.388"/>
			
				<line fill="#FFFFFF" stroke="#000000" stroke-linecap="round" stroke-miterlimit="10" x1="23.054" y1="59.534" x2="31.179" y2="62.659"/>
		</g>
		<g>
			<circle cx="19.303" cy="38.45" r="5.125"/>
			<circle fill="#FFFFFF" cx="18.345" cy="37.659" r="2.125"/>
		</g>
	</g>
	<g>
		<circle fill="#FFFFFF" cx="70.122" cy="42.618" r="11.625"/>
		<circle cx="70.122" cy="42.618" r="8.625"/>
	</g>
</g>
</svg>
