<?xml version="1.0" encoding="utf-8"?>
<!-- Generator: Adobe Illustrator 15.1.0, SVG Export Plug-In . SVG Version: 6.00 Build 0)  -->
<!DOCTYPE svg PUBLIC "-//W3C//DTD SVG 1.1//EN" "http://www.w3.org/Graphics/SVG/1.1/DTD/svg11.dtd">
<svg version="1.1" id="レイヤー_1" xmlns="http://www.w3.org/2000/svg" xmlns:xlink="http://www.w3.org/1999/xlink" x="0px"
	 y="0px" width="117.379px" height="86.467px" viewBox="0 0 117.379 86.467" enable-background="new 0 0 117.379 86.467"
	 xml:space="preserve">
<g>
	<g>
		<g>
			<path fill="#FFFFFF" stroke="#000000" stroke-width="2" stroke-miterlimit="10" d="M41.239,13.793
				C45.954,10.047,51.487,0.92,54.985,1c3.498,0.082,12.027,4.368,18.197,6.871c5.449,2.211,17.277,5.334,14.58,8.396
				c-2.188,2.484-5.527,6.5-7.471,9.455c-3,4.557-9.322-2.021-16.756-4.945S38.182,16.223,41.239,13.793z"/>
			
				<line fill="#FFFFFF" stroke="#000000" stroke-linecap="round" stroke-miterlimit="10" x1="58.179" y1="1.95" x2="49.053" y2="11.95"/>
			
				<line fill="#FFFFFF" stroke="#000000" stroke-linecap="round" stroke-miterlimit="10" x1="62.804" y1="3.575" x2="54.054" y2="13.075"/>
			
				<line fill="#FFFFFF" stroke="#000000" stroke-linecap="round" stroke-miterlimit="10" x1="66.679" y1="5.825" x2="59.429" y2="14.325"/>
			
				<line fill="#FFFFFF" stroke="#000000" stroke-linecap="round" stroke-miterlimit="10" x1="71.429" y1="7.075" x2="64.554" y2="15.325"/>
			
				<line fill="#FFFFFF" stroke="#000000" stroke-linecap="round" stroke-miterlimit="10" x1="76.054" y1="9.2" x2="68.429" y2="17.825"/>
			
				<line fill="#FFFFFF" stroke="#000000" stroke-linecap="round" stroke-miterlimit="10" x1="80.804" y1="10.825" x2="72.929" y2="19.7"/>
			
				<line fill="#FFFFFF" stroke="#000000" stroke-linecap="round" stroke-miterlimit="10" x1="84.804" y1="12.575" x2="76.511" y2="22.575"/>
		</g>
		<g>
			<path fill="#FFFFFF" stroke="#000000" stroke-width="2" stroke-miterlimit="10" d="M66.679,69.493
				c1.107,2.516,4.35,10.963,7.197,10.813c2.85-0.15,4.26-2.242,8.572-5.688c4.314-3.445,6.432-4.254,7.188-6.75
				c0.756-2.498-6.984-9.186-8.791-8.875C79.038,59.301,66.679,69.493,66.679,69.493z"/>
			
				<line fill="#FFFFFF" stroke="#000000" stroke-linecap="round" stroke-miterlimit="10" x1="71.679" y1="70.325" x2="77.054" y2="79.2"/>
			
				<line fill="#FFFFFF" stroke="#000000" stroke-linecap="round" stroke-miterlimit="10" x1="74.929" y1="68.2" x2="80.429" y2="75.825"/>
			
				<line fill="#FFFFFF" stroke="#000000" stroke-linecap="round" stroke-miterlimit="10" x1="78.054" y1="65.95" x2="84.304" y2="73.825"/>
			
				<line fill="#FFFFFF" stroke="#000000" stroke-linecap="round" stroke-miterlimit="10" x1="81.304" y1="63.2" x2="87.554" y2="70.325"/>
		</g>
		<g>
			<path fill="#FFFFFF" stroke="#000000" stroke-width="2" stroke-miterlimit="10" d="M27.392,68.241
				c-1.922,7.002,4.083,18.125,7.495,17.168c4.458-1.25,4.922-7.627,4.839-9.168c-0.082-1.535-3.74-5.527-3.74-5.527L27.392,68.241z
				"/>
			
				<line fill="#FFFFFF" stroke="#000000" stroke-linecap="round" stroke-miterlimit="10" x1="29.678" y1="72.2" x2="35.178" y2="84.575"/>
			
				<line fill="#FFFFFF" stroke="#000000" stroke-linecap="round" stroke-miterlimit="10" x1="33.178" y1="72.325" x2="38.178" y2="82.493"/>
		</g>
		<g>
			<path fill="#E6E6E6" stroke="#000000" stroke-width="2" stroke-miterlimit="10" d="M1.053,46.784c0.941-7.531,13.75-29.084,34-33
				c19.625-3.796,29.497,1.846,40.833,9.166c8.023,5.182,17.422,15.629,21.168,14.25c6.434-2.367,14.125-14.625,17.625-12.375
				c4.854,3.121-2.252,13.176-2,21.75c0.25,8.5,5.375,16.25,1.625,18.75c-4.129,2.754-12.75-9.125-17.25-11.125
				c-5.951-2.645-15,11.75-32,18.75c-10.678,4.396-35.542,4.709-49.167-5.5C6.064,60.092,0.386,52.118,1.053,46.784z"/>
			
				<line fill="#FFFFFF" stroke="#000000" stroke-linecap="round" stroke-miterlimit="10" x1="101.054" y1="39.7" x2="115.429" y2="30.325"/>
			
				<line fill="#FFFFFF" stroke="#000000" stroke-linecap="round" stroke-miterlimit="10" x1="103.054" y1="42.825" x2="113.679" y2="39.325"/>
			
				<line fill="#FFFFFF" stroke="#000000" stroke-linecap="round" stroke-miterlimit="10" x1="103.179" y1="49.534" x2="113.429" y2="52.2"/>
			
				<line fill="#FFFFFF" stroke="#000000" stroke-linecap="round" stroke-miterlimit="10" x1="101.845" y1="52.45" x2="114.554" y2="59.825"/>
			
				<line fill="#FFFFFF" stroke="#000000" stroke-linecap="round" stroke-miterlimit="10" x1="103.429" y1="46.2" x2="112.679" y2="45.95"/>
		</g>
		<g>
			<path fill="#FFFFFF" stroke="#000000" stroke-width="2" stroke-miterlimit="10" d="M24.283,54.973c0,0,10.466-2.115,10.019,1.059
				c-0.445,3.176-3.796,11.773-7.499,9.668c-3.703-2.104-4.924-5.018-4.924-5.018L24.283,54.973z"/>
			
				<line fill="#FFFFFF" stroke="#000000" stroke-linecap="round" stroke-miterlimit="10" x1="24.094" y1="57.637" x2="33.344" y2="58.387"/>
			
				<line fill="#FFFFFF" stroke="#000000" stroke-linecap="round" stroke-miterlimit="10" x1="23.053" y1="59.534" x2="31.178" y2="62.659"/>
		</g>
		<g>
			<circle cx="19.303" cy="38.45" r="5.125"/>
			<circle fill="#FFFFFF" cx="18.344" cy="37.659" r="2.125"/>
		</g>
	</g>
	<g>
		<path d="M93.263,50.91c-0.256,0-0.516-0.033-0.775-0.102c-3.546-0.946-40.636-6.039-51.911-5.774
			c-1.628,0.028-3.029-1.277-3.065-2.934c-0.036-1.657,1.278-3.029,2.934-3.065c12.089-0.268,49.862,4.982,53.588,5.976
			c1.601,0.427,2.552,2.071,2.125,3.672C95.802,50.023,94.589,50.909,93.263,50.91z"/>
		<path d="M86.382,39.195c-0.35,0-0.705-0.062-1.052-0.191c-4.083-1.528-36.25-5.072-47.141-4.882c-0.016,0-0.033,0-0.049,0
			c-1.634,0-2.972-1.312-2.999-2.952c-0.027-1.656,1.294-3.021,2.951-3.048c10.119-0.17,43.844,3.204,49.341,5.262
			c1.552,0.581,2.339,2.31,1.758,3.861C88.74,38.451,87.597,39.195,86.382,39.195z"/>
		<path d="M81.472,60.405c-0.251,0-0.506-0.031-0.76-0.098c-3.686-0.963-30.188-3.658-39.982-3.898
			c-1.657-0.041-2.966-1.416-2.926-3.072s1.436-2.935,3.072-2.926c9.802,0.24,36.855,2.916,41.351,4.09
			c1.604,0.419,2.563,2.058,2.145,3.661C84.02,59.512,82.804,60.405,81.472,60.405z"/>
		<path d="M71.265,69.409c-0.101,0-0.201-0.005-0.303-0.015c-2.28-0.229-17.092-1.225-31.361-1.99
			c-1.654-0.088-2.924-1.501-2.835-3.156c0.088-1.654,1.508-2.927,3.156-2.835c13.71,0.734,28.952,1.742,31.638,2.01
			c1.648,0.165,2.852,1.635,2.687,3.284C74.091,68.254,72.787,69.409,71.265,69.409z"/>
		<path d="M69.317,26.341c-0.17,0-0.341-0.014-0.514-0.044c-4.563-0.787-19.338-2.736-32.728-2.304
			c-1.641,0.053-3.042-1.246-3.095-2.902c-0.053-1.656,1.246-3.042,2.902-3.095c13.886-0.45,29.208,1.572,33.939,2.388
			c1.633,0.282,2.729,1.833,2.446,3.466C72.019,25.31,70.75,26.341,69.317,26.341z"/>
	</g>
</g>
</svg>
