<?xml version="1.0" encoding="utf-8"?>
<!-- Generator: Adobe Illustrator 15.1.0, SVG Export Plug-In . SVG Version: 6.00 Build 0)  -->
<!DOCTYPE svg PUBLIC "-//W3C//DTD SVG 1.1//EN" "http://www.w3.org/Graphics/SVG/1.1/DTD/svg11.dtd">
<svg version="1.1" id="レイヤー_1" xmlns="http://www.w3.org/2000/svg" xmlns:xlink="http://www.w3.org/1999/xlink" x="0px"
	 y="0px" width="117.379px" height="86.467px" viewBox="0 0 117.379 86.467" enable-background="new 0 0 117.379 86.467"
	 xml:space="preserve">
<g>
	<g>
		<g>
			<path fill="#FFFFFF" stroke="#000000" stroke-width="2" stroke-miterlimit="10" d="M41.239,13.794
				c4.715-3.746,10.248-12.873,13.746-12.793c3.498,0.082,12.027,4.369,18.197,6.871c5.448,2.211,17.276,5.334,14.579,8.396
				c-2.188,2.484-5.527,6.5-7.471,9.455c-3,4.557-9.321-2.021-16.755-4.945S38.183,16.224,41.239,13.794z"/>
			
				<line fill="#FFFFFF" stroke="#000000" stroke-linecap="round" stroke-miterlimit="10" x1="58.179" y1="1.95" x2="49.054" y2="11.95"/>
			
				<line fill="#FFFFFF" stroke="#000000" stroke-linecap="round" stroke-miterlimit="10" x1="62.804" y1="3.575" x2="54.054" y2="13.075"/>
			
				<line fill="#FFFFFF" stroke="#000000" stroke-linecap="round" stroke-miterlimit="10" x1="66.679" y1="5.825" x2="59.429" y2="14.325"/>
			
				<line fill="#FFFFFF" stroke="#000000" stroke-linecap="round" stroke-miterlimit="10" x1="71.429" y1="7.075" x2="64.554" y2="15.325"/>
			
				<line fill="#FFFFFF" stroke="#000000" stroke-linecap="round" stroke-miterlimit="10" x1="76.053" y1="9.2" x2="68.429" y2="17.825"/>
			
				<line fill="#FFFFFF" stroke="#000000" stroke-linecap="round" stroke-miterlimit="10" x1="80.803" y1="10.825" x2="72.929" y2="19.7"/>
			
				<line fill="#FFFFFF" stroke="#000000" stroke-linecap="round" stroke-miterlimit="10" x1="84.803" y1="12.575" x2="76.51" y2="22.575"/>
		</g>
		<g>
			<path fill="#FFFFFF" stroke="#000000" stroke-width="2" stroke-miterlimit="10" d="M66.679,69.493
				c1.107,2.516,4.35,10.963,7.196,10.813c2.85-0.15,4.26-2.242,8.572-5.688c4.314-3.445,6.432-4.254,7.188-6.75
				c0.756-2.498-6.984-9.186-8.791-8.875C79.037,59.302,66.679,69.493,66.679,69.493z"/>
			
				<line fill="#FFFFFF" stroke="#000000" stroke-linecap="round" stroke-miterlimit="10" x1="71.679" y1="70.325" x2="77.053" y2="79.2"/>
			
				<line fill="#FFFFFF" stroke="#000000" stroke-linecap="round" stroke-miterlimit="10" x1="74.928" y1="68.2" x2="80.428" y2="75.825"/>
			
				<line fill="#FFFFFF" stroke="#000000" stroke-linecap="round" stroke-miterlimit="10" x1="78.053" y1="65.95" x2="84.303" y2="73.825"/>
			
				<line fill="#FFFFFF" stroke="#000000" stroke-linecap="round" stroke-miterlimit="10" x1="81.303" y1="63.2" x2="87.553" y2="70.325"/>
		</g>
		<g>
			<path fill="#FFFFFF" stroke="#000000" stroke-width="2" stroke-miterlimit="10" d="M27.391,68.241
				c-1.922,7.002,4.084,18.125,7.495,17.168c4.459-1.25,4.922-7.627,4.84-9.168c-0.082-1.535-3.74-5.527-3.74-5.527L27.391,68.241z"
				/>
			
				<line fill="#FFFFFF" stroke="#000000" stroke-linecap="round" stroke-miterlimit="10" x1="29.679" y1="72.2" x2="35.179" y2="84.575"/>
			
				<line fill="#FFFFFF" stroke="#000000" stroke-linecap="round" stroke-miterlimit="10" x1="33.179" y1="72.325" x2="38.179" y2="82.493"/>
		</g>
		<g>
			<path fill="#E6E6E6" stroke="#000000" stroke-width="2" stroke-miterlimit="10" d="M1.053,46.784c0.941-7.531,13.75-29.084,34-33
				C54.679,9.989,64.55,15.63,75.885,22.95c8.023,5.182,17.422,15.629,21.169,14.25c6.434-2.367,14.125-14.625,17.625-12.375
				c4.854,3.121-2.252,13.176-2,21.75c0.25,8.5,5.375,16.25,1.625,18.75c-4.129,2.754-12.75-9.125-17.25-11.125
				c-5.952-2.645-15.001,11.75-32,18.75c-10.678,4.396-35.543,4.709-49.168-5.5C6.065,60.093,0.385,52.118,1.053,46.784z"/>
			
				<line fill="#FFFFFF" stroke="#000000" stroke-linecap="round" stroke-miterlimit="10" x1="101.054" y1="39.7" x2="115.429" y2="30.325"/>
			
				<line fill="#FFFFFF" stroke="#000000" stroke-linecap="round" stroke-miterlimit="10" x1="103.054" y1="42.825" x2="113.679" y2="39.325"/>
			
				<line fill="#FFFFFF" stroke="#000000" stroke-linecap="round" stroke-miterlimit="10" x1="103.179" y1="49.534" x2="113.429" y2="52.2"/>
			
				<line fill="#FFFFFF" stroke="#000000" stroke-linecap="round" stroke-miterlimit="10" x1="101.845" y1="52.45" x2="114.554" y2="59.825"/>
			
				<line fill="#FFFFFF" stroke="#000000" stroke-linecap="round" stroke-miterlimit="10" x1="103.429" y1="46.2" x2="112.679" y2="45.95"/>
		</g>
		<g>
			<path fill="#FFFFFF" stroke="#000000" stroke-width="2" stroke-miterlimit="10" d="M24.282,54.974c0,0,10.467-2.115,10.02,1.059
				c-0.445,3.176-3.797,11.773-7.499,9.668c-3.703-2.104-4.924-5.018-4.924-5.018L24.282,54.974z"/>
			
				<line fill="#FFFFFF" stroke="#000000" stroke-linecap="round" stroke-miterlimit="10" x1="24.094" y1="57.638" x2="33.345" y2="58.388"/>
			
				<line fill="#FFFFFF" stroke="#000000" stroke-linecap="round" stroke-miterlimit="10" x1="23.053" y1="59.534" x2="31.179" y2="62.659"/>
		</g>
		<g>
			<circle cx="19.303" cy="38.45" r="5.125"/>
			<circle fill="#FFFFFF" cx="18.344" cy="37.659" r="2.125"/>
		</g>
	</g>
	<g>
		<path d="M34.413,14.618c-2.033,3.254,0.834,16,2.334,18s4.334-0.5,5.5-5.5s3.834-13,2.834-13.5S36.081,11.952,34.413,14.618z"/>
		<path d="M56.413,15.118c-1.666,2.834-3.332,8-3.332,12.334c0,4.332-0.834,10.332,2.332,8.832c3.168-1.5,5.521-7.135,8.521-10.229
			c2.883-2.973,9.646-5.438,3.479-8.438c-6.166-3-9-4.668-10.666-3.334"/>
		<path d="M78.58,26.284c-1.23,2.459-4,8.668-5.167,10.334c-1.166,1.666-3.5,4.834-0.666,5.334c2.833,0.5,7.626-2.609,9.96-4.775
			c2.334-2.168,4.051-4.518,3.543-5.402C85.156,29.874,79.746,23.95,78.58,26.284z"/>
	</g>
</g>
</svg>
