<?xml version="1.0" encoding="utf-8"?>
<!-- Generator: Adobe Illustrator 15.1.0, SVG Export Plug-In . SVG Version: 6.00 Build 0)  -->
<!DOCTYPE svg PUBLIC "-//W3C//DTD SVG 1.1//EN" "http://www.w3.org/Graphics/SVG/1.1/DTD/svg11.dtd">
<svg version="1.1" id="レイヤー_1" xmlns="http://www.w3.org/2000/svg" xmlns:xlink="http://www.w3.org/1999/xlink" x="0px"
	 y="0px" width="117.379px" height="86.467px" viewBox="0 0 117.379 86.467" enable-background="new 0 0 117.379 86.467"
	 xml:space="preserve">
<g>
	<g>
		<g>
			<path fill="#FFFFFF" stroke="#000000" stroke-width="2" stroke-miterlimit="10" d="M41.24,13.794
				c4.713-3.746,10.246-12.873,13.744-12.793c3.5,0.082,12.029,4.369,18.197,6.871c5.451,2.211,17.279,5.334,14.582,8.396
				c-2.188,2.484-5.527,6.5-7.473,9.455c-2.998,4.557-9.32-2.021-16.754-4.945S38.182,16.224,41.24,13.794z"/>
			
				<line fill="#FFFFFF" stroke="#000000" stroke-linecap="round" stroke-miterlimit="10" x1="58.178" y1="1.95" x2="49.053" y2="11.95"/>
			
				<line fill="#FFFFFF" stroke="#000000" stroke-linecap="round" stroke-miterlimit="10" x1="62.803" y1="3.575" x2="54.053" y2="13.075"/>
			
				<line fill="#FFFFFF" stroke="#000000" stroke-linecap="round" stroke-miterlimit="10" x1="66.678" y1="5.825" x2="59.428" y2="14.325"/>
			
				<line fill="#FFFFFF" stroke="#000000" stroke-linecap="round" stroke-miterlimit="10" x1="71.428" y1="7.075" x2="64.553" y2="15.325"/>
			
				<line fill="#FFFFFF" stroke="#000000" stroke-linecap="round" stroke-miterlimit="10" x1="76.053" y1="9.2" x2="68.428" y2="17.825"/>
			
				<line fill="#FFFFFF" stroke="#000000" stroke-linecap="round" stroke-miterlimit="10" x1="80.803" y1="10.825" x2="72.928" y2="19.7"/>
			
				<line fill="#FFFFFF" stroke="#000000" stroke-linecap="round" stroke-miterlimit="10" x1="84.803" y1="12.575" x2="76.512" y2="22.575"/>
		</g>
		<g>
			<path fill="#FFFFFF" stroke="#000000" stroke-width="2" stroke-miterlimit="10" d="M66.68,69.493
				c1.107,2.516,4.348,10.963,7.197,10.813s4.26-2.242,8.572-5.688c4.314-3.445,6.432-4.254,7.188-6.75
				c0.756-2.498-6.984-9.186-8.791-8.875C79.039,59.302,66.68,69.493,66.68,69.493z"/>
			
				<line fill="#FFFFFF" stroke="#000000" stroke-linecap="round" stroke-miterlimit="10" x1="71.678" y1="70.325" x2="77.053" y2="79.2"/>
			
				<line fill="#FFFFFF" stroke="#000000" stroke-linecap="round" stroke-miterlimit="10" x1="74.928" y1="68.2" x2="80.428" y2="75.825"/>
			
				<line fill="#FFFFFF" stroke="#000000" stroke-linecap="round" stroke-miterlimit="10" x1="78.053" y1="65.95" x2="84.303" y2="73.825"/>
			
				<line fill="#FFFFFF" stroke="#000000" stroke-linecap="round" stroke-miterlimit="10" x1="81.303" y1="63.2" x2="87.553" y2="70.325"/>
		</g>
		<g>
			<path fill="#FFFFFF" stroke="#000000" stroke-width="2" stroke-miterlimit="10" d="M27.393,68.241
				c-1.922,7.002,4.084,18.125,7.494,17.168c4.459-1.25,4.922-7.627,4.84-9.168c-0.084-1.535-3.742-5.527-3.742-5.527L27.393,68.241
				z"/>
			
				<line fill="#FFFFFF" stroke="#000000" stroke-linecap="round" stroke-miterlimit="10" x1="29.678" y1="72.2" x2="35.178" y2="84.575"/>
			
				<line fill="#FFFFFF" stroke="#000000" stroke-linecap="round" stroke-miterlimit="10" x1="33.178" y1="72.325" x2="38.178" y2="82.493"/>
		</g>
		<g>
			<path fill="#E6E6E6" stroke="#000000" stroke-width="2" stroke-miterlimit="10" d="M1.053,46.784c0.941-7.531,13.75-29.084,34-33
				C54.68,9.989,64.551,15.63,75.887,22.95c8.023,5.182,17.42,15.629,21.166,14.25c6.436-2.367,14.125-14.625,17.625-12.375
				c4.855,3.121-2.252,13.176-2,21.75c0.25,8.5,5.375,16.25,1.625,18.75c-4.129,2.754-12.75-9.125-17.25-11.125
				c-5.951-2.645-15,11.75-32,18.75c-10.676,4.396-35.541,4.709-49.166-5.5C6.064,60.093,0.387,52.118,1.053,46.784z"/>
			
				<line fill="#FFFFFF" stroke="#000000" stroke-linecap="round" stroke-miterlimit="10" x1="101.053" y1="39.7" x2="115.428" y2="30.325"/>
			
				<line fill="#FFFFFF" stroke="#000000" stroke-linecap="round" stroke-miterlimit="10" x1="103.053" y1="42.825" x2="113.678" y2="39.325"/>
			
				<line fill="#FFFFFF" stroke="#000000" stroke-linecap="round" stroke-miterlimit="10" x1="103.178" y1="49.534" x2="113.428" y2="52.2"/>
			
				<line fill="#FFFFFF" stroke="#000000" stroke-linecap="round" stroke-miterlimit="10" x1="101.846" y1="52.45" x2="114.553" y2="59.825"/>
			
				<line fill="#FFFFFF" stroke="#000000" stroke-linecap="round" stroke-miterlimit="10" x1="103.428" y1="46.2" x2="112.678" y2="45.95"/>
		</g>
		<g>
			<path fill="#FFFFFF" stroke="#000000" stroke-width="2" stroke-miterlimit="10" d="M24.283,54.974c0,0,10.465-2.115,10.02,1.059
				c-0.447,3.176-3.797,11.773-7.5,9.668c-3.701-2.104-4.924-5.018-4.924-5.018L24.283,54.974z"/>
			
				<line fill="#FFFFFF" stroke="#000000" stroke-linecap="round" stroke-miterlimit="10" x1="24.096" y1="57.638" x2="33.346" y2="58.388"/>
			
				<line fill="#FFFFFF" stroke="#000000" stroke-linecap="round" stroke-miterlimit="10" x1="23.053" y1="59.534" x2="31.178" y2="62.659"/>
		</g>
		<g>
			<circle cx="19.303" cy="38.45" r="5.125"/>
			<circle fill="#FFFFFF" cx="18.346" cy="37.659" r="2.125"/>
		</g>
	</g>
	<g>
		<path d="M38.949,19.009c-2.326,0.15-3.934-0.184-3.619,3.441c0.084,0.959-1.08,1.896-2.332,2.209s-0.412,3.736-0.516,4.676
			s2.115,0.219,4.307,1.365c2.189,1.148,2.979,2.064,3.916,1.125c0.939-0.938,0.436-2.49,3.668-2.281
			c3.234,0.209,5.217-0.313,5.529-2.086s0.729-2.189-2.4-2.711s-3.963-1.252-4.172-2.816S39.367,18.983,38.949,19.009z"/>
		<path d="M54.742,29.544c-1.031,0-0.354,3.836,0.707,4.154c1.063,0.318,3.359-0.959,3.359-0.959S57.039,29.544,54.742,29.544z"/>
		<path d="M58.02,41.015c-6.344-0.314-7.406,3.234-7.197,6.676c0.209,3.443,2.189,4.904,5.006,4.59
			c2.816-0.313,2.504-3.232,4.902-3.232c2.4,0,3.859-1.357,3.859-2.816c0-1.461-2.295-1.043-3.547-2.086
			C59.793,43.103,60.105,41.118,58.02,41.015z"/>
		<path d="M41.795,39.985c-1.02,0.699-0.258,3.705,0.775,3.838s2.453-0.002,3.229-0.398s0.258-1.453-0.258-2.248
			C45.025,40.384,42.182,39.72,41.795,39.985z"/>
		<path d="M70.699,27.562c-1.254,0.811-2.711,6.049,0,7.404c2.713,1.357,9.283,4.279,10.223,3.234
			c0.938-1.043,0.209-4.693-0.73-5.842c-0.939-1.146-3.65,0.209-5.111,0.209C73.621,32.567,72.473,26.413,70.699,27.562z"/>
		<path d="M66.887,54.903c2.07-0.475,2.875,1.238,2.875,1.982c0,0.742-0.252,1.238-1.125,1.238c-0.875,0-3-0.125-2.625-1.611
			C66.389,55.026,65.264,55.274,66.887,54.903z"/>
		<path d="M59.83,22.462c-0.902-1.059-2.549,1.922-1.639,2.564s2.73,1.494,3.641,0.854S60.922,23.745,59.83,22.462z"/>
		<path d="M45.785,55.987c3.314,0.936,5.977-1.336,7.721,0.602c1.746,1.938,0.135,4.74,2.211,6.146
			c2.074,1.404,0.658,3.104-1.398,3.059c-2.059-0.045-2.057-1.635-4.199-3.328c-2.143-1.691-9.023-4.84-8.367-5.904
			C42.41,55.495,44.324,55.573,45.785,55.987z"/>
		<path d="M74.42,47.774c3.273-2.76,6.283-2.449,6.396-0.902c0.113,1.545-1.143,2.189-0.457,3.479
			c0.686,1.287-0.23,3.221-1.143,1.674c-0.914-1.545-2.969-2.316-3.313-2.576C75.563,49.19,73.963,48.159,74.42,47.774z"/>
		<path d="M88.85,41.956c-0.834-0.314-1.461,0.625-1.461,2.502c0,1.879,1.877,4.902,2.607,3.859s2.295-1.041,2.607-2.502
			c0.314-1.461-0.104-1.982-1.459-1.982C89.787,43.833,89.684,42.269,88.85,41.956z"/>
		<path d="M63.012,37.487c1.875,0,3.594,1.406,2.344,1.969s-2.344,0.563-2.344-0.703S63.012,37.487,63.012,37.487z"/>
		<path d="M66.914,39.636c0.715-2.268,1.43-2.268,2.287-2.268c0.855,0,1.713,2.57,1.713,3.174c0,0.605-1.285,2.873-2,2.57
			c-0.713-0.303-0.285-2.418-0.713-2.871C67.771,39.786,66.914,39.636,66.914,39.636z"/>
		<path d="M66.33,47.075c0.156,1.246-1.25,3.625-0.125,3.5s3-2,3-2.5s-1-2-1.75-2.25S66.205,46.075,66.33,47.075z"/>
	</g>
</g>
</svg>
